
******* Iron.Man.2.2010.DVDRiP.XViD.Optional.Multi_Sub-Zen_Bud *******

Format                           : AVI
File size                        : 1.37 GiB
Duration                         : 1h 59mn
Overall bit rate                 : 1 643 Kbps

Video

Format                           : MPEG-4 Visual
Codec ID/Hint                    : XviD
Duration                         : 1h 59mn
Bit rate                         : 1 502 Kbps
Width                            : 720 pixels
Height                           : 436 pixels
Display aspect ratio             : 2.35:1
Stream size                      : 1.25 GiB (91%)
Writing library                  : XviD 1.1.2 (UTC 2006-11-01)

Audio

Format                           : MPEG Audio
Codec ID/Hint                    : MP3
Duration                         : 1h 59mn
Bit rate                         : 128 Kbps
Channel(s)                       : 2 channels
Sampling rate                    : 48.0 KHz
Stream size                      : 109 MiB (8%)
Writing library                  : LAME3.98
Language                         : English

Text #1
Language                         : Danish

Text #2
Language                         : English

Text #3
Language                         : Dutch

Text #4
Language                         : Norwegian

Text #5
Language                         : Finnish

Text #6
Language                         : Swedish
